<svg xmlns="http://www.w3.org/2000/svg" version="1.1" xmlns:xlink="http://www.w3.org/1999/xlink" viewBox="0 0 200 200"><rect width="200" height="200" fill="url('#gradient')"></rect><defs><linearGradient id="gradient" gradientTransform="rotate(0 0.5 0.5)"><stop offset="0%" stop-color="212a37"></stop><stop offset="100%" stop-color="#4b5d9c"></stop></linearGradient></defs><g><g fill="#ffffff" transform="matrix(1.8799018038211122,0,0,1.8799018038211122,13.61196510039484,113.91361676262034)" stroke="#ffffff" stroke-width="0"><path d="M10.11-14.22L12.09-5.30L13.72-14.22L17.12-14.22L14.10 0L10.55 0L8.64-8.11L6.78 0L3.23 0L0.21-14.22L3.61-14.22L5.24-5.30L7.20-14.22L10.11-14.22ZM27.23 0L23.94 0Q23.76-0.32 23.62-0.95L23.62-0.95Q22.71 0.20 21.08 0.20L21.08 0.20Q19.59 0.20 18.54-0.71Q17.50-1.61 17.50-2.98L17.50-2.98Q17.50-4.70 18.77-5.58Q20.04-6.46 22.46-6.46L22.46-6.46L23.48-6.46L23.48-7.01Q23.48-8.47 22.22-8.47L22.22-8.47Q21.04-8.47 21.04-7.31L21.04-7.31L17.75-7.31Q17.75-8.85 19.06-9.80Q20.36-10.76 22.38-10.76Q24.40-10.76 25.58-9.78Q26.75-8.79 26.78-7.07L26.78-7.07L26.78-2.39Q26.80-0.94 27.23-0.17L27.23-0.17L27.23 0ZM21.88-2.15L21.88-2.15Q22.49-2.15 22.90-2.41Q23.30-2.68 23.48-3.01L23.48-3.01L23.48-4.70L22.52-4.70Q20.80-4.70 20.80-3.15L20.80-3.15Q20.80-2.71 21.10-2.43Q21.41-2.15 21.88-2.15ZM29.14-13.19L32.43-13.19L32.43-10.57L34.17-10.57L34.17-8.28L32.43-8.28L32.43-3.45Q32.43-2.85 32.65-2.62Q32.86-2.38 33.50-2.38L33.50-2.38Q33.98-2.38 34.32-2.44L34.32-2.44L34.32-0.09Q33.43 0.20 32.46 0.20L32.46 0.20Q30.76 0.20 29.95-0.61Q29.14-1.41 29.14-3.04L29.14-3.04L29.14-8.28L27.79-8.28L27.79-10.57L29.14-10.57L29.14-13.19ZM39.93-2.34L39.93-2.34Q40.63-2.34 41.01-2.72Q41.39-3.10 41.38-3.77L41.38-3.77L44.46-3.77Q44.46-2.03 43.22-0.92Q41.97 0.20 40.01 0.20L40.01 0.20Q37.71 0.20 36.38-1.25Q35.05-2.70 35.05-5.25L35.05-5.25L35.05-5.39Q35.05-6.99 35.64-8.22Q36.23-9.44 37.34-10.10Q38.46-10.76 39.98-10.76L39.98-10.76Q42.04-10.76 43.25-9.62Q44.46-8.48 44.46-6.52L44.46-6.52L41.38-6.52Q41.38-7.34 40.98-7.78Q40.58-8.22 39.90-8.22L39.90-8.22Q38.62-8.22 38.41-6.59L38.41-6.59Q38.34-6.07 38.34-5.17L38.34-5.17Q38.34-3.57 38.72-2.96Q39.10-2.34 39.93-2.34ZM49.07-15L49.07-9.43Q50.13-10.76 51.77-10.76L51.77-10.76Q53.52-10.76 54.40-9.73Q55.29-8.69 55.31-6.67L55.31-6.67L55.31 0L52.01 0L52.01-6.59Q52.01-7.43 51.67-7.83Q51.33-8.22 50.51-8.22L50.51-8.22Q49.49-8.22 49.07-7.58L49.07-7.58L49.07 0L45.78 0L45.78-15L49.07-15ZM60.62-15L60.62 0L57.31 0L57.31-15L60.62-15ZM66.11-10.57L66.11 0L62.81 0L62.81-10.57L66.11-10.57ZM62.62-13.29L62.62-13.29Q62.62-13.99 63.13-14.44Q63.63-14.89 64.44-14.89Q65.25-14.89 65.76-14.44Q66.27-13.99 66.27-13.29Q66.27-12.59 65.76-12.14Q65.25-11.69 64.44-11.69Q63.63-11.69 63.13-12.14Q62.62-12.59 62.62-13.29ZM73.67-2.97L73.67-2.97Q73.67-3.39 73.23-3.64Q72.79-3.90 71.56-4.17Q70.33-4.44 69.53-4.89Q68.73-5.33 68.31-5.97Q67.89-6.60 67.89-7.42L67.89-7.42Q67.89-8.88 69.09-9.82Q70.29-10.76 72.24-10.76L72.24-10.76Q74.33-10.76 75.60-9.81Q76.87-8.87 76.87-7.32L76.87-7.32L73.56-7.32Q73.56-8.59 72.23-8.59L72.23-8.59Q71.71-8.59 71.36-8.31Q71.01-8.02 71.01-7.59L71.01-7.59Q71.01-7.15 71.44-6.88Q71.87-6.60 72.81-6.43Q73.75-6.25 74.46-6.01L74.46-6.01Q76.85-5.19 76.85-3.07L76.85-3.07Q76.85-1.62 75.56-0.71Q74.28 0.20 72.24 0.20L72.24 0.20Q70.88 0.20 69.81-0.29Q68.75-0.78 68.15-1.62Q67.56-2.46 67.56-3.39L67.56-3.39L70.63-3.39Q70.65-2.66 71.12-2.32Q71.59-1.98 72.32-1.98L72.32-1.98Q73.00-1.98 73.33-2.26Q73.67-2.53 73.67-2.97ZM78.93-13.19L82.22-13.19L82.22-10.57L83.96-10.57L83.96-8.28L82.22-8.28L82.22-3.45Q82.22-2.85 82.43-2.62Q82.65-2.38 83.28-2.38L83.28-2.38Q83.77-2.38 84.10-2.44L84.10-2.44L84.10-0.09Q83.21 0.20 82.25 0.20L82.25 0.20Q80.55 0.20 79.74-0.61Q78.93-1.41 78.93-3.04L78.93-3.04L78.93-8.28L77.58-8.28L77.58-10.57L78.93-10.57L78.93-13.19ZM91.70-10.64L91.64-7.59L90.56-7.67Q89.00-7.67 88.56-6.69L88.56-6.69L88.56 0L85.27 0L85.27-10.57L88.36-10.57L88.47-9.21Q89.30-10.76 90.78-10.76L90.78-10.76Q91.31-10.76 91.70-10.64L91.70-10.64Z"></path></g></g></svg>